# xmcd
#
# Track frame offsets: 
#        150
#        16515
#        37195
#        59217
#        79112
#        97420
#        112937
#        129937
#        148355
#        167232
#        189010
#        205450
#
# Disc length: 3002 seconds
#
# Revision: 2
# Processed by: cddbd v1.5.2PL0 Copyright (c) Steve Scherf et al.
# Submitted via: ExactAudioCopy v1.0b3
#
DISCID=ac0bb80c
DTITLE=Maranatha! Music - Alone With God • Here I Am (1997)
DYEAR=1997
DGENRE=Praise and Worship
TTITLE0=Brent Helming - Come As You Are
TTITLE1=Jeff Lams - Sweet Hour Of Prayer
TTITLE2=Donn Thomas - With My Whole Heart
TTITLE3=Fernando Ortega - I Will Delight (In The Way of the Lord)
TTITLE4=Harlan Rogers and Smitty Price - What A Friend we Have In Jesus
TTITLE5=Jean-Luc Lajoie - Jesus, I Believe
TTITLE6=Rob Mathes - Your Throne Oh God
TTITLE7=Harlan Rogers and Smitty Price - It Is Well With My Soul
TTITLE8=Donn Thomas - Joy Will Come
TTITLE9=Rob Mathes - Here I  Am
TTITLE10=Jeff Lams - You Are My Hiding Place
TTITLE11=John Barbour - I Will Follow
EXTD=
EXTT0=
EXTT1=
EXTT2=
EXTT3=
EXTT4=
EXTT5=
EXTT6=
EXTT7=
EXTT8=
EXTT9=
EXTT10=
EXTT11=
PLAYORDER=
